<svg id="Layer_1" enable-background="new 0 0 512.002 512.002" height="512" viewBox="0 0 512.002 512.002" width="512" xmlns="http://www.w3.org/2000/svg"><g><path d="m423.886 224c-48.52.05-87.96 39.8-87.91 88.62.02 26.67 13.31 57.07 39.5 90.37 18.69 23.77 37.21 40.29 37.99 40.98 6.077 5.395 15.224 5.358 21.26-.02.78-.69 19.27-17.25 37.92-41.05 20.008-25.543 39.33-58.126 39.33-90.45-.041-48.726-39.184-88.45-88.09-88.45zm-23.91 88.02c-.021-13.255 10.706-23.999 23.97-24.02 21.352 0 32.039 25.921 17.01 40.95-14.956 14.989-40.98 4.551-40.98-16.93z"/><path d="m77.396 219.96c6.063 5.382 15.188 5.391 21.26 0 .78-.69 19.29-17.23 37.96-41.01 26.15-33.33 39.41-63.74 39.41-90.42 0-48.81-39.48-88.53-88-88.53s-88 39.72-88 88.53c0 26.68 13.26 57.09 39.41 90.42 18.67 23.78 37.18 40.32 37.96 41.01zm10.63-155.96c13.23 0 24 10.77 24 24s-10.77 24-24 24-24-10.77-24-24 10.77-24 24-24z"/><path d="m448.136 487.98c0 21.921-27.186 32.406-41.87 16.02h-334.24c-39.7 0-72-32.3-72-72s32.3-72 72-72h160.5c21.78 0 39.5-17.72 39.5-39.5s-17.72-39.5-39.5-39.5h-126.61c-4.83 5.33-11.259 8-17.89 8-21.276 0-32.022-25.918-16.99-40.95 9.882-9.904 25.936-9.178 34.87.95h126.62c39.43 0 71.5 32.07 71.5 71.5s-32.07 71.5-71.5 71.5h-160.5c-22.06 0-40 17.94-40 40s17.94 40 40 40c360.016 0 333.711.469 335.13-.95 14.993-15.027 40.964-4.473 40.98 16.93z"/></g></svg>