<?xml version="1.0" encoding="iso-8859-1"?>
<!-- Generator: Adobe Illustrator 19.0.0, SVG Export Plug-In . SVG Version: 6.00 Build 0)  -->
<svg version="1.1" id="Capa_1" xmlns="http://www.w3.org/2000/svg" xmlns:xlink="http://www.w3.org/1999/xlink" x="0px" y="0px"
	 viewBox="0 0 512 512" style="enable-background:new 0 0 512 512;" xml:space="preserve">
<path style="fill:#2196F3;" d="M496,0H368c-8.832,0-16,7.168-16,16v96c0,8.832,7.168,16,16,16h128c8.832,0,16-7.168,16-16V16
	C512,7.168,504.832,0,496,0z"/>
<path style="fill:#CFD8DC;" d="M448,480H144c-8.832,0-16-7.168-16-16s7.168-16,16-16h304c17.664,0,32-14.336,32-32s-14.336-32-32-32
	H288c-35.296,0-64-28.704-64-64s28.704-64,64-64h48c8.832,0,16,7.168,16,16s-7.168,16-16,16h-48c-17.632,0-32,14.336-32,32
	s14.368,32,32,32h160c35.296,0,64,28.704,64,64S483.296,480,448,480z"/>
<path style="fill:#455A64;" d="M368,192c-8.832,0-16-7.168-16-16V16c0-8.832,7.168-16,16-16s16,7.168,16,16v160
	C384,184.832,376.832,192,368,192z"/>
<g>
	<circle style="fill:#B0BEC5;" cx="112" cy="464" r="48"/>
	<circle style="fill:#B0BEC5;" cx="368" cy="272" r="48"/>
</g>
<path style="fill:#2196F3;" d="M112,96C50.24,96,0,146.24,0,208c0,57.472,89.856,159.264,100.096,170.688
	c3.04,3.36,7.36,5.312,11.904,5.312s8.864-1.952,11.904-5.312C134.144,367.264,224,265.472,224,208C224,146.24,173.76,96,112,96z"/>
<circle style="fill:#FAFAFA;" cx="112" cy="208" r="48"/>
<g>
</g>
<g>
</g>
<g>
</g>
<g>
</g>
<g>
</g>
<g>
</g>
<g>
</g>
<g>
</g>
<g>
</g>
<g>
</g>
<g>
</g>
<g>
</g>
<g>
</g>
<g>
</g>
<g>
</g>
</svg>
